<?xml version="1.0" encoding="utf-8"?>
<!-- Generator: Adobe Illustrator 16.0.0, SVG Export Plug-In . SVG Version: 6.00 Build 0)  -->
<!DOCTYPE svg PUBLIC "-//W3C//DTD SVG 1.1//EN" "http://www.w3.org/Graphics/SVG/1.1/DTD/svg11.dtd">
<svg version="1.1" id="Layer_1" xmlns="http://www.w3.org/2000/svg" xmlns:xlink="http://www.w3.org/1999/xlink" x="0px" y="0px"
	 width="240px" height="240px" viewBox="0 0 240 240" enable-background="new 0 0 240 240" xml:space="preserve">
<path fill-rule="evenodd" clip-rule="evenodd" fill="#FFFFFF" d="M121.119,136.998c-35.48,0.03-64.15-28.646-64.117-64.13
	c0.033-35.204,28.672-63.837,63.88-63.866c35.479-0.03,64.149,28.646,64.116,64.13C184.965,108.335,156.326,136.968,121.119,136.998
	z"/>
<path fill-rule="evenodd" clip-rule="evenodd" fill="#FFFFFF" d="M121.675,233.119c-19.829-0.441-38.663-2.127-56.899-8.005
	c-2.678-0.863-5.325-1.873-7.894-3.021c-13.384-5.983-16.181-10.802-15.821-25.382c0.545-22.084,8.791-39.977,27.501-52.516
	c4.417-2.96,8.19-7.459,12.995-9.101c4.899-1.675,9.013,3.546,13.713,5.227c20.956,7.491,41.157,6.124,60.652-4.467
	c2.778-1.51,4.538-1.557,6.925,0.462c3.422,2.893,7.075,5.542,10.795,8.049c17.967,12.11,26.303,29.238,27.242,50.606
	c0.711,16.171-2.281,21.782-17.368,27.839C163.434,230.873,142.229,232.531,121.675,233.119z"/>
</svg>
